<?xml version="1.0" encoding="UTF-8" standalone="no"?>
<!-- Created with Inkscape (http://www.inkscape.org/) -->

<svg
   xmlns:dc="http://purl.org/dc/elements/1.1/"
   xmlns:cc="http://creativecommons.org/ns#"
   xmlns:rdf="http://www.w3.org/1999/02/22-rdf-syntax-ns#"
   xmlns:svg="http://www.w3.org/2000/svg"
   xmlns="http://www.w3.org/2000/svg"
   xmlns:xlink="http://www.w3.org/1999/xlink"
   xmlns:sodipodi="http://sodipodi.sourceforge.net/DTD/sodipodi-0.dtd"
   xmlns:inkscape="http://www.inkscape.org/namespaces/inkscape"
   width="128"
   height="128"
   id="svg2"
   version="1.1"
   inkscape:version="0.48.2 r9819"
   sodipodi:docname="icon.svg">
  <defs
     id="defs4">
    <linearGradient
       id="linearGradient4060">
      <stop
         style="stop-color:#ffffff;stop-opacity:1;"
         offset="0"
         id="stop4062" />
      <stop
         style="stop-color:#00ff00;stop-opacity:1;"
         offset="1"
         id="stop4064" />
    </linearGradient>
    <linearGradient
       id="linearGradient3775">
      <stop
         style="stop-color:#000000;stop-opacity:1;"
         offset="0"
         id="stop3777" />
      <stop
         style="stop-color:#ffffff;stop-opacity:1;"
         offset="1"
         id="stop3779" />
    </linearGradient>
    <linearGradient
       inkscape:collect="always"
       xlink:href="#linearGradient3775"
       id="linearGradient3783"
       x1="37.123104"
       y1="56.657978"
       x2="64.144684"
       y2="56.657978"
       gradientUnits="userSpaceOnUse" />
    <linearGradient
       inkscape:collect="always"
       xlink:href="#linearGradient3775-4"
       id="linearGradient3783-7"
       x1="37.123104"
       y1="56.657978"
       x2="64.144684"
       y2="56.657978"
       gradientUnits="userSpaceOnUse" />
    <linearGradient
       id="linearGradient3775-4">
      <stop
         style="stop-color:#000000;stop-opacity:1;"
         offset="0"
         id="stop3777-0" />
      <stop
         style="stop-color:#ffffff;stop-opacity:1;"
         offset="1"
         id="stop3779-9" />
    </linearGradient>
    <linearGradient
       y2="56.657978"
       x2="64.144684"
       y1="56.657978"
       x1="37.123104"
       gradientUnits="userSpaceOnUse"
       id="linearGradient3800"
       xlink:href="#linearGradient3775-4"
       inkscape:collect="always" />
    <linearGradient
       y2="56.657978"
       x2="64.144684"
       y1="56.657978"
       x1="37.123104"
       gradientUnits="userSpaceOnUse"
       id="linearGradient3800-8"
       xlink:href="#linearGradient3775-4-8"
       inkscape:collect="always" />
    <linearGradient
       id="linearGradient3775-4-8">
      <stop
         style="stop-color:#000000;stop-opacity:1;"
         offset="0"
         id="stop3777-0-2" />
      <stop
         style="stop-color:#ffffff;stop-opacity:1;"
         offset="1"
         id="stop3779-9-4" />
    </linearGradient>
    <linearGradient
       y2="56.657978"
       x2="64.144684"
       y1="56.657978"
       x1="37.123104"
       gradientUnits="userSpaceOnUse"
       id="linearGradient3834"
       xlink:href="#linearGradient3775-4-8"
       inkscape:collect="always" />
    <linearGradient
       inkscape:collect="always"
       xlink:href="#linearGradient3775-4"
       id="linearGradient3859"
       x1="21.718281"
       y1="55.395287"
       x2="94.449265"
       y2="55.395287"
       gradientUnits="userSpaceOnUse" />
    <filter
       color-interpolation-filters="sRGB"
       inkscape:collect="always"
       id="filter3871-0"
       x="-0.073674418"
       width="1.1473488"
       y="-0.23023257"
       height="1.4604651">
      <feGaussianBlur
         inkscape:collect="always"
         stdDeviation="2.1318918"
         id="feGaussianBlur3873-4" />
    </filter>
    <filter
       inkscape:collect="always"
       id="filter3927"
       x="-0.11665116"
       width="1.2333023"
       y="-0.36453489"
       height="1.7290698">
      <feGaussianBlur
         inkscape:collect="always"
         stdDeviation="3.3754953"
         id="feGaussianBlur3929" />
    </filter>
    <filter
       color-interpolation-filters="sRGB"
       inkscape:collect="always"
       id="filter3927-4"
       x="-0.11665116"
       width="1.2333024"
       y="-0.36453488"
       height="1.7290698">
      <feGaussianBlur
         inkscape:collect="always"
         stdDeviation="3.3754953"
         id="feGaussianBlur3929-6" />
    </filter>
    <linearGradient
       inkscape:collect="always"
       xlink:href="#linearGradient3775-4-3"
       id="linearGradient3859-0"
       x1="21.718281"
       y1="55.395287"
       x2="94.449265"
       y2="55.395287"
       gradientUnits="userSpaceOnUse" />
    <linearGradient
       id="linearGradient3775-4-3">
      <stop
         style="stop-color:#000000;stop-opacity:1;"
         offset="0"
         id="stop3777-0-6" />
      <stop
         style="stop-color:#ffffff;stop-opacity:1;"
         offset="1"
         id="stop3779-9-2" />
    </linearGradient>
    <linearGradient
       y2="55.395287"
       x2="94.449265"
       y1="55.395287"
       x1="21.718281"
       gradientUnits="userSpaceOnUse"
       id="linearGradient3949"
       xlink:href="#linearGradient3775-4-3"
       inkscape:collect="always" />
    <linearGradient
       y2="55.395287"
       x2="94.449265"
       y1="55.395287"
       x1="21.718281"
       gradientUnits="userSpaceOnUse"
       id="linearGradient3949-8"
       xlink:href="#linearGradient3775-4-3-8"
       inkscape:collect="always" />
    <linearGradient
       id="linearGradient3775-4-3-8">
      <stop
         style="stop-color:#000000;stop-opacity:1;"
         offset="0"
         id="stop3777-0-6-1" />
      <stop
         style="stop-color:#00ff00;stop-opacity:1;"
         offset="1"
         id="stop3779-9-2-2" />
    </linearGradient>
    <linearGradient
       y2="55.395287"
       x2="94.449265"
       y1="55.395287"
       x1="21.718281"
       gradientUnits="userSpaceOnUse"
       id="linearGradient3992"
       xlink:href="#linearGradient3775-4-3-8"
       inkscape:collect="always" />
    <linearGradient
       y2="55.395287"
       x2="94.449265"
       y1="55.395287"
       x1="21.718281"
       gradientUnits="userSpaceOnUse"
       id="linearGradient3992-2"
       xlink:href="#linearGradient3775-4-3-8-4"
       inkscape:collect="always" />
    <linearGradient
       id="linearGradient3775-4-3-8-4">
      <stop
         style="stop-color:#000000;stop-opacity:1;"
         offset="0"
         id="stop3777-0-6-1-5" />
      <stop
         style="stop-color:#ffffff;stop-opacity:1;"
         offset="1"
         id="stop3779-9-2-2-2" />
    </linearGradient>
    <filter
       color-interpolation-filters="sRGB"
       inkscape:collect="always"
       id="filter3927-4-1-9"
       x="-0.11665116"
       width="1.2333024"
       y="-0.36453488"
       height="1.7290698">
      <feGaussianBlur
         inkscape:collect="always"
         stdDeviation="3.3754953"
         id="feGaussianBlur3929-6-4-9" />
    </filter>
    <linearGradient
       y2="55.395287"
       x2="94.449265"
       y1="55.395287"
       x1="21.718281"
       gradientUnits="userSpaceOnUse"
       id="linearGradient4035"
       xlink:href="#linearGradient3775-4-3-8-4"
       inkscape:collect="always" />
    <linearGradient
       inkscape:collect="always"
       xlink:href="#linearGradient4060"
       id="linearGradient4066"
       x1="31.592648"
       y1="967.76189"
       x2="106.04064"
       y2="967.76189"
       gradientUnits="userSpaceOnUse" />
    <linearGradient
       inkscape:collect="always"
       xlink:href="#linearGradient4060"
       id="linearGradient4069"
       gradientUnits="userSpaceOnUse"
       x1="29.567862"
       y1="963.60522"
       x2="86.805168"
       y2="984.38867"
       gradientTransform="matrix(0.2823039,0,0,0.89384288,53.487151,95.429495)" />
    <linearGradient
       y2="55.395287"
       x2="94.449265"
       y1="55.395287"
       x1="21.718281"
       gradientUnits="userSpaceOnUse"
       id="linearGradient3992-8"
       xlink:href="#linearGradient3775-4-3-8-6"
       inkscape:collect="always" />
    <linearGradient
       id="linearGradient3775-4-3-8-6">
      <stop
         style="stop-color:#7e7e7e;stop-opacity:1;"
         offset="0"
         id="stop3777-0-6-1-9" />
      <stop
         style="stop-color:#ffffff;stop-opacity:1;"
         offset="1"
         id="stop3779-9-2-2-8" />
    </linearGradient>
    <linearGradient
       y2="55.395287"
       x2="94.449265"
       y1="55.395287"
       x1="21.718281"
       gradientUnits="userSpaceOnUse"
       id="linearGradient4086"
       xlink:href="#linearGradient3775-4-3-8-6"
       inkscape:collect="always" />
    <clipPath
       clipPathUnits="userSpaceOnUse"
       id="clipPath4179">
      <path
         style="fill:#00ff00;fill-opacity:1;stroke:#00ff00;stroke-width:3;stroke-linecap:round;stroke-linejoin:round;stroke-miterlimit:4;stroke-opacity:1;stroke-dasharray:none"
         d="m 30.71875,935.92468 c -13.609874,0 -24.65625,9.60283 -24.65625,21.4375 0,9.467 7.080071,17.51412 16.875,20.34375 -2.7511,3.45864 -4.375,7.63532 -4.375,12.15625 0,11.83472 11.046376,21.43752 24.65625,21.43752 3.756543,0 7.315883,-0.7578 10.5,-2.0625 -0.104235,0.7998 -0.15625,1.6135 -0.15625,2.4375 0,11.8347 11.046376,21.4062 24.65625,21.4062 13.609878,0 24.625,-9.5715 24.625,-21.4062 0,-6.9813 -3.812289,-13.21011 -9.75,-17.12502 8.30307,-3.43841 14.0625,-10.77534 14.0625,-19.3125 0,-11.83468 -11.015126,-21.4375 -24.625,-21.4375 -12.650378,0 -23.091457,8.29497 -24.5,18.96875 -2.108033,-1.38352 -4.472523,-2.50999 -7.03125,-3.25 2.738343,-3.4502 4.34375,-7.64173 4.34375,-12.15625 0,-11.83467 -11.015126,-21.4375 -24.625,-21.4375 z m 2.84375,12.84375 c 7.692538,0 13.9375,4.71254 13.9375,10.53125 0,3.98853 -2.926576,7.48451 -7.25,9.28125 -2.019138,0.212 -3.973641,0.63959 -5.8125,1.25 -0.288283,0.0135 -0.58226,0.0312 -0.875,0.0312 -7.692538,0 -13.9375,-4.74378 -13.9375,-10.5625 0,-5.81871 6.244962,-10.53125 13.9375,-10.53125 z m 51.8125,17.875 c 7.692538,0 13.9375,4.71255 13.9375,10.53125 0,5.8187 -6.244962,10.5625 -13.9375,10.5625 -7.692538,0 -13.9375,-4.7438 -13.9375,-10.5625 0,-5.8187 6.244962,-10.53125 13.9375,-10.53125 z m -39.3125,14.625 c 7.692538,0 13.9375,4.71254 13.9375,10.53125 0,5.81872 -6.244962,10.56252 -13.9375,10.56252 -7.692538,0 -13.9375,-4.7438 -13.9375,-10.56252 0,-5.81871 6.244962,-10.53125 13.9375,-10.53125 z m 35,21.81247 c 7.692538,0 13.9375,4.7126 13.9375,10.5313 0,5.8187 -6.244962,10.5625 -13.9375,10.5625 -7.692538,0 -13.9375,-4.7438 -13.9375,-10.5625 0,-5.8187 6.244962,-10.5313 13.9375,-10.5313 z"
         id="path4181"
         inkscape:connector-curvature="0" />
    </clipPath>
  </defs>
  <sodipodi:namedview
     id="base"
     pagecolor="#ffffff"
     bordercolor="#666666"
     borderopacity="1.0"
     inkscape:pageopacity="0.0"
     inkscape:pageshadow="2"
     inkscape:zoom="5.6"
     inkscape:cx="89.578944"
     inkscape:cy="59.696649"
     inkscape:document-units="px"
     inkscape:current-layer="layer1"
     showgrid="false"
     inkscape:window-width="1920"
     inkscape:window-height="1018"
     inkscape:window-x="-8"
     inkscape:window-y="-8"
     inkscape:window-maximized="1" />
  <metadata
     id="metadata7">
    <rdf:RDF>
      <cc:Work
         rdf:about="">
        <dc:format>image/svg+xml</dc:format>
        <dc:type
           rdf:resource="http://purl.org/dc/dcmitype/StillImage" />
        <dc:title></dc:title>
      </cc:Work>
    </rdf:RDF>
  </metadata>
  <g
     inkscape:label="Layer 1"
     inkscape:groupmode="layer"
     id="layer1"
     transform="translate(0,-924.36218)">
    <path
       sodipodi:type="arc"
       style="fill:url(#linearGradient3992);fill-opacity:1;stroke:none"
       id="path2985-4-9"
       sodipodi:cx="58.083771"
       sodipodi:cy="55.395287"
       sodipodi:rx="36.36549"
       sodipodi:ry="38.259529"
       d="m 94.449261,55.395287 a 36.36549,38.259529 0 1 1 -72.73098,0 36.36549,38.259529 0 1 1 72.73098,0 z"
       transform="matrix(1.488109,0,0,1.4290429,-18.376489,905.14091)" />
    <path
       sodipodi:type="arc"
       style="fill:url(#linearGradient4086);fill-opacity:1;stroke:#00ff00;stroke-width:2.6289934;stroke-miterlimit:4;stroke-dasharray:none"
       id="path2985-4-9-6"
       sodipodi:cx="58.083771"
       sodipodi:cy="55.395287"
       sodipodi:rx="36.36549"
       sodipodi:ry="38.259529"
       d="m 94.449261,55.395287 a 36.36549,38.259529 0 1 1 -72.73098,0 36.36549,38.259529 0 1 1 72.73098,0 z"
       transform="matrix(-0.54126054,-1.0236899,0.96129027,-0.58769177,45.993997,1073.4141)" />
    <path
       style="fill:url(#linearGradient4069);fill-opacity:1;stroke:#00ff00;stroke-width:2.51241945999999980;stroke-linecap:round;stroke-linejoin:round;stroke-miterlimit:4;stroke-opacity:1"
       d="m 63.111638,950.52447 4.665478,4.88849 8.982398,-11.55929 6.90919,5.09751 -9.546777,11.2112 5.451322,4.08061 L 87.289918,1011.83 58.8246,967.81643 c -65.9852251,29.01061 4.287038,-10.67057 4.287038,-17.29196 z"
       id="rect3861-5-8"
       inkscape:connector-curvature="0"
       sodipodi:nodetypes="ccccccccc" />
    <path
       sodipodi:type="arc"
       style="fill:#000000;fill-opacity:1;stroke:#00ff00;stroke-width:3;stroke-linecap:round;stroke-linejoin:round;stroke-miterlimit:4;stroke-opacity:1;stroke-dasharray:none;display:none"
       id="point1"
       sodipodi:cx="60.625"
       sodipodi:cy="62.017857"
       sodipodi:rx="9.9107141"
       sodipodi:ry="10.089286"
       d="m 70.535714,62.017857 a 9.9107141,10.089286 0 1 1 -19.821428,0 9.9107141,10.089286 0 1 1 19.821428,0 z"
       transform="matrix(0.69889723,0,0,0.75732383,1.2900705,946.91243)"
       inkscape:label="#path4183" />
    <path
       sodipodi:type="arc"
       style="fill:#000000;fill-opacity:1;stroke:#00ff00;stroke-width:3;stroke-linecap:round;stroke-linejoin:round;stroke-miterlimit:4;stroke-opacity:1;stroke-dasharray:none"
       id="point2"
       sodipodi:cx="52.589287"
       sodipodi:cy="68.446426"
       sodipodi:rx="8.3035717"
       sodipodi:ry="8.3035717"
       d="m 60.892859,68.446426 a 8.3035717,8.3035717 0 1 1 -16.607144,0 8.3035717,8.3035717 0 1 1 16.607144,0 z"
       transform="translate(10.178571,940.43361)"
       inkscape:label="#path4185" />
  </g>
</svg>
